# xmcd
#
# Track frame offsets: 
#        150
#        13900
#        30203
#        48817
#        65490
#        83311
#        105229
#        124158
#        137191
#        160286
#        177532
#        200144
#
# Disc length: 2951 seconds
#
# Revision: 0
# Processed by: cddbd v1.5.2PL0 Copyright (c) Steve Scherf et al.
# Submitted via: ExactAudioCopy v1.1
#
DISCID=980b850c
DTITLE=Mollie Marriott - Truth Is A Wolf
DYEAR=2017
DGENRE=Blues
TTITLE0=Control
TTITLE1=Broken
TTITLE2=Truth Is A Wolf
TTITLE3=Give Me A Reason
TTITLE4=Run With The Hounds
TTITLE5=Love Your Bones
TTITLE6=Transformer
TTITLE7=Fortunate Fate
TTITLE8=King Of Hearts
TTITLE9=My Heaven Can Wait
TTITLE10=Armour
TTITLE11=Gravity
EXTD=
EXTT0=
EXTT1=
EXTT2=
EXTT3=
EXTT4=
EXTT5=
EXTT6=
EXTT7=
EXTT8=
EXTT9=
EXTT10=
EXTT11=
PLAYORDER=
